<?xml version="1.0" encoding="UTF-8" standalone="no"?>
<!-- Generator: Adobe Illustrator 19.0.0, SVG Export Plug-In . SVG Version: 6.00 Build 0)  -->

<svg
   xmlns:dc="http://purl.org/dc/elements/1.1/"
   xmlns:cc="http://creativecommons.org/ns#"
   xmlns:rdf="http://www.w3.org/1999/02/22-rdf-syntax-ns#"
   xmlns:svg="http://www.w3.org/2000/svg"
   xmlns="http://www.w3.org/2000/svg"
   xmlns:sodipodi="http://sodipodi.sourceforge.net/DTD/sodipodi-0.dtd"
   xmlns:inkscape="http://www.inkscape.org/namespaces/inkscape"
   version="1.1"
   id="Layer_1"
   x="0px"
   y="0px"
   viewBox="0 0 469.333 469.333"
   style="enable-background:new 0 0 469.333 469.333;"
   xml:space="preserve"
   width="512px"
   height="512px"
   inkscape:version="0.91 r13725"
   sodipodi:docname="chefhatfinal.svg"><metadata
     id="metadata4295"><rdf:RDF><cc:Work
         rdf:about=""><dc:format>image/svg+xml</dc:format><dc:type
           rdf:resource="http://purl.org/dc/dcmitype/StillImage" /><dc:title></dc:title></cc:Work></rdf:RDF></metadata><defs
     id="defs4293" /><sodipodi:namedview
     pagecolor="#ffffff"
     bordercolor="#666666"
     borderopacity="1"
     objecttolerance="10"
     gridtolerance="10"
     guidetolerance="10"
     inkscape:pageopacity="0"
     inkscape:pageshadow="2"
     inkscape:window-width="1280"
     inkscape:window-height="706"
     id="namedview4291"
     showgrid="false"
     inkscape:zoom="0.4609375"
     inkscape:cx="256"
     inkscape:cy="256"
     inkscape:window-x="0"
     inkscape:window-y="1"
     inkscape:window-maximized="1"
     inkscape:current-layer="Layer_1" /><g
     id="g4247"
     inkscape:export-xdpi="2.8125"
     inkscape:export-ydpi="2.8125"
     transform="translate(538.93749,-49.71748)"><g
       id="g4249"><g
         id="g4251"><path
           d="m 128,224 c 0,-5.896 -4.771,-10.667 -10.667,-10.667 -5.896,0 -10.667,4.771 -10.667,10.667 0,28.01 30.896,66.469 34.417,70.771 2.115,2.563 5.177,3.896 8.26,3.896 2.375,0 4.771,-0.792 6.76,-2.417 4.552,-3.74 5.208,-10.458 1.479,-15.021 C 146.146,267.292 128,239.437 128,224 Z"
           id="path4253"
           inkscape:connector-curvature="0"
           style="fill:#51bb95" /><path
           d="m 352,213.333 c -5.896,0 -10.667,4.771 -10.667,10.667 0,15.385 -18.146,43.271 -29.583,57.24 -3.729,4.552 -3.063,11.271 1.49,15.01 1.979,1.625 4.375,2.417 6.76,2.417 3.083,0 6.135,-1.333 8.25,-3.896 3.521,-4.302 34.417,-42.76 34.417,-70.771 0,-5.896 -4.771,-10.667 -10.667,-10.667 z"
           id="path4255"
           inkscape:connector-curvature="0"
           style="fill:#51bb95" /><path
           d="M 234.667,213.333 C 228.771,213.333 224,218.104 224,224 l 0,64 c 0,5.896 4.771,10.667 10.667,10.667 5.896,0 10.667,-4.771 10.667,-10.667 l 0,-64 c -0.001,-5.896 -4.772,-10.667 -10.667,-10.667 z"
           id="path4257"
           inkscape:connector-curvature="0"
           style="fill:#51bb95" /><path
           d="m 352,42.667 c -6.464,0 -13.219,0.855 -20.234,2.158 C 308.273,17.439 273.496,0 234.667,0 195.838,0 161.06,17.439 137.568,44.824 130.552,43.522 123.797,42.666 117.334,42.666 52.635,42.667 0,95.302 0,160 0,204.333 25,244.635 64.25,264.562 L 64.042,425.76 c -0.01,11.635 4.51,22.573 12.729,30.802 8.229,8.24 19.156,12.771 30.792,12.771 l 254.25,0 c 24,0 43.521,-19.521 43.521,-43.521 l 0,-161.406 c 39.104,-19.979 64,-60.219 64,-104.406 C 469.333,95.302 416.698,42.667 352,42.667 Z m 32,383.146 c 0,12.229 -9.958,22.188 -22.188,22.188 l -254.25,0 c -5.927,0 -11.5,-2.313 -15.698,-6.51 -4.188,-4.198 -6.5,-9.771 -6.49,-15.708 L 85.43,384 384,384 l 0,41.813 z m 6.604,-178.011 c -0.563,0.229 -1.094,0.5 -1.594,0.823 -1.344,0.833 -2.448,1.938 -3.271,3.208 -0.833,1.26 -1.396,2.719 -1.625,4.281 -0.094,0.594 -0.125,1.188 -0.115,1.792 l 0,104.76 -298.542,0 0.137,-104.615 c 0.01,-0.583 -0.021,-1.177 -0.104,-1.75 -0.229,-1.615 -0.823,-3.115 -1.688,-4.417 -0.813,-1.219 -1.875,-2.281 -3.167,-3.094 -0.531,-0.333 -1.094,-0.625 -1.677,-0.865 -35.01,-15.31 -57.625,-49.79 -57.625,-87.925 0,-52.938 43.063,-96 96,-96 2.069,0 4.253,0.25 6.396,0.419 -10.792,18.756 -17.063,40.43 -17.063,63.581 0,5.896 4.771,10.667 10.667,10.667 5.896,0 10.667,-4.771 10.667,-10.667 0,-58.813 47.854,-106.667 106.667,-106.667 58.813,0 106.666,47.854 106.666,106.667 0,5.896 4.771,10.667 10.667,10.667 5.896,0 10.667,-4.771 10.667,-10.667 0,-23.151 -6.271,-44.824 -17.063,-63.581 C 347.747,64.25 349.931,64 352,64 c 52.938,0 96,43.063 96,96 0,38 -22.521,72.437 -57.396,87.802 z"
           id="path4259"
           inkscape:connector-curvature="0"
           style="fill:#51bb95" /></g></g></g><g
     id="g4261" /><g
     id="g4263" /><g
     id="g4265" /><g
     id="g4267" /><g
     id="g4269" /><g
     id="g4271" /><g
     id="g4273" /><g
     id="g4275" /><g
     id="g4277" /><g
     id="g4279" /><g
     id="g4281" /><g
     id="g4283" /><g
     id="g4285" /><g
     id="g4287" /><g
     id="g4289" /></svg>